<svg xmlns="http://www.w3.org/2000/svg" width="16" height="20" viewBox="0 0 16 20"><defs><style>.a{fill:#9acced;}.b{fill:#c1c0ff;}.c{fill:#3498db;}.d{fill:#fff;}</style></defs><g transform="translate(-4 -2)"><path class="a" d="M12,10C8.024,10,4,8.626,4,6v6c0,2.626,4.024,4,8,4s8-1.374,8-4V6C20,8.626,15.976,10,12,10Z"/><path class="b" d="M20,6V6h0Z"/><path class="c" d="M12,16c-3.976,0-8-1.374-8-4v6c0,2.626,4.024,4,8,4s8-1.374,8-4V12C20,14.626,15.976,16,12,16Z"/><circle class="d" cx="1" cy="1" r="1" transform="translate(7 17.5)"/><circle class="d" cx="1" cy="1" r="1" transform="translate(7 11.5)"/><path class="c" d="M12,10C8.024,10,4,8.626,4,6s4.024-4,8-4,8,1.374,8,4S15.976,10,12,10Z"/></g></svg>