<svg xmlns="http://www.w3.org/2000/svg" width="20" height="20" viewBox="0 0 20 20"><defs><style>.a{fill:#9acced;}.b{fill:#3498db;}</style></defs><g transform="translate(-2 -2)"><path class="a" d="M9.243,18H5a1,1,0,0,1-1-1V12.757a1,1,0,0,1,.293-.707l9.76-9.757a1,1,0,0,1,1.414,0l4.24,4.239a1,1,0,0,1,0,1.414L9.95,17.707A1,1,0,0,1,9.243,18Z"/><path class="b" d="M15.467,2.293a1,1,0,0,0-1.414,0l-3.54,3.538,5.654,5.654.006,0,3.534-3.535a1,1,0,0,0,0-1.414ZM21,22H3a1,1,0,0,1,0-2H21a1,1,0,0,1,0,2Z"/></g></svg>