<?xml version="1.0" encoding="utf-8"?>
<!-- Generator: Adobe Illustrator 16.0.2, SVG Export Plug-In . SVG Version: 6.00 Build 0)  -->
<!DOCTYPE svg PUBLIC "-//W3C//DTD SVG 1.1//EN" "http://www.w3.org/Graphics/SVG/1.1/DTD/svg11.dtd">
<svg version="1.1" id="Layer_1" xmlns="http://www.w3.org/2000/svg" xmlns:xlink="http://www.w3.org/1999/xlink" x="0px" y="0px"
	 width="316.321px" height="442.663px" viewBox="0 0 316.321 442.663" enable-background="new 0 0 316.321 442.663"
	 xml:space="preserve">
<g id="BACKGROUND">
</g>
<g id="OBJECTS">
	<path fill="none" d="M194.014,371.214c32.301,0,58.111-29.787,53.857-64.593c-3.519-28.771-28.15-49.565-55.752-49.565h-26.467
		H68.989v114.158H194.014z"/>
	<g>
		<path fill="#1DEBB7" d="M260.451,208.311c17.762-23.5,27.885-53.645,26.352-86.262C283.559,53.01,226.876,0,161.098,0H0
			c0,39.461,30.44,71.45,67.989,71.45h94.766c27.602,0,52.235,20.794,55.751,49.563c4.257,34.806-21.553,64.595-53.854,64.595
			h24.813C215.488,185.607,240.02,194.005,260.451,208.311z"/>
		<rect x="1" y="238.963" fill="#1DEBB7" width="67.989" height="139.493"/>
	</g>
	<path fill="#2DB9FA" d="M316.168,307.656c-1.959-41.726-23.51-77.493-54.715-99.346c-20.433-14.305-44.964-22.703-70.987-22.703
		h-24.813H68.99v-42.708c0-39.461-30.44-71.45-67.989-71.45v114.158v71.449H68.99h96.663h26.468
		c27.603,0,52.233,20.795,55.752,49.564c4.254,34.806-21.557,64.593-53.857,64.593H68.989H1c0,39.462,30.44,71.45,67.989,71.45
		h125.026C263.498,442.664,319.635,381.453,316.168,307.656z"/>
</g>
<g id="Designed_By_Freepik" display="none">
	<g id="Freepik_Sign_3_" display="inline">
		<g id="XMLID_226_">
			<path id="XMLID_261_" fill="#EF8031" d="M180.308,484.923v-0.161c-0.218,0.249-0.433,0.453-0.645,0.608
				c-0.211,0.157-0.441,0.274-0.688,0.355c-0.248,0.082-0.517,0.122-0.81,0.122c-0.388,0-0.748-0.082-1.078-0.246
				s-0.616-0.398-0.857-0.703c-0.242-0.305-0.425-0.661-0.549-1.074c-0.125-0.411-0.188-0.857-0.188-1.336
				c0-1.014,0.248-1.804,0.742-2.369c0.495-0.564,1.146-0.848,1.953-0.848c0.467,0,0.861,0.079,1.181,0.239
				c0.321,0.16,0.633,0.407,0.938,0.738v-2.392c0-0.333,0.065-0.583,0.199-0.755c0.132-0.17,0.321-0.256,0.567-0.256
				c0.245,0,0.434,0.079,0.566,0.235c0.133,0.157,0.199,0.387,0.199,0.691v7.146c0,0.309-0.071,0.54-0.214,0.694
				c-0.143,0.153-0.326,0.23-0.552,0.23c-0.222,0-0.405-0.08-0.55-0.239C180.38,485.447,180.308,485.22,180.308,484.923z
				 M177.12,482.543c0,0.439,0.068,0.813,0.205,1.121c0.137,0.31,0.324,0.541,0.561,0.697c0.238,0.155,0.497,0.234,0.777,0.234
				c0.285,0,0.545-0.074,0.781-0.223c0.235-0.148,0.423-0.376,0.563-0.683c0.141-0.308,0.21-0.691,0.21-1.148
				c0-0.433-0.07-0.804-0.21-1.115c-0.14-0.31-0.33-0.547-0.57-0.711c-0.239-0.164-0.501-0.246-0.786-0.246
				c-0.297,0-0.562,0.084-0.796,0.252c-0.233,0.168-0.414,0.409-0.543,0.725C177.184,481.762,177.12,482.126,177.12,482.543z"/>
			<path id="XMLID_258_" fill="#EF8031" d="M187.454,482.953h-3.17c0.004,0.367,0.078,0.69,0.223,0.973
				c0.144,0.28,0.336,0.493,0.576,0.635c0.24,0.144,0.504,0.215,0.792,0.215c0.194,0,0.371-0.022,0.531-0.067
				c0.161-0.047,0.316-0.117,0.466-0.215c0.151-0.097,0.289-0.2,0.416-0.313c0.127-0.111,0.291-0.263,0.493-0.45
				c0.083-0.071,0.202-0.108,0.357-0.108c0.166,0,0.3,0.047,0.402,0.139c0.103,0.093,0.155,0.22,0.155,0.387
				c0,0.146-0.058,0.315-0.172,0.513c-0.115,0.196-0.289,0.385-0.52,0.563c-0.232,0.182-0.522,0.33-0.873,0.448
				c-0.35,0.12-0.752,0.179-1.208,0.179c-1.04,0-1.85-0.297-2.428-0.891c-0.578-0.593-0.866-1.398-0.866-2.415
				c0-0.479,0.071-0.925,0.213-1.334c0.142-0.409,0.351-0.76,0.623-1.053c0.273-0.293,0.609-0.519,1.009-0.674
				c0.4-0.156,0.843-0.234,1.33-0.234c0.633,0,1.176,0.133,1.628,0.399c0.454,0.269,0.793,0.612,1.019,1.035
				c0.225,0.425,0.338,0.855,0.338,1.294c0,0.409-0.117,0.674-0.35,0.793C188.207,482.892,187.877,482.953,187.454,482.953z
				 M184.284,482.032h2.938c-0.039-0.554-0.189-0.969-0.448-1.244c-0.259-0.275-0.6-0.412-1.024-0.412
				c-0.404,0-0.735,0.139-0.994,0.417C184.497,481.072,184.34,481.485,184.284,482.032z"/>
			<path id="XMLID_256_" fill="#EF8031" d="M194.838,483.729c0,0.446-0.108,0.829-0.327,1.148c-0.217,0.318-0.539,0.562-0.965,0.725
				c-0.425,0.164-0.942,0.246-1.552,0.246c-0.582,0-1.08-0.09-1.496-0.268c-0.416-0.177-0.723-0.4-0.92-0.667
				c-0.198-0.27-0.297-0.535-0.297-0.806c0-0.179,0.063-0.329,0.19-0.456c0.126-0.126,0.287-0.189,0.481-0.189
				c0.17,0,0.3,0.042,0.391,0.125c0.091,0.083,0.179,0.199,0.261,0.349c0.166,0.291,0.366,0.505,0.597,0.648
				c0.231,0.142,0.546,0.214,0.947,0.214c0.325,0,0.591-0.074,0.798-0.218c0.208-0.146,0.312-0.31,0.312-0.495
				c0-0.286-0.107-0.492-0.324-0.623c-0.215-0.131-0.571-0.256-1.065-0.375c-0.558-0.138-1.012-0.284-1.362-0.437
				c-0.351-0.151-0.63-0.354-0.84-0.603s-0.315-0.558-0.315-0.921c0-0.323,0.097-0.631,0.291-0.92
				c0.194-0.288,0.48-0.52,0.858-0.691c0.377-0.172,0.833-0.259,1.368-0.259c0.419,0,0.797,0.044,1.13,0.132
				c0.335,0.086,0.615,0.204,0.838,0.352c0.224,0.146,0.394,0.308,0.51,0.484c0.117,0.18,0.175,0.353,0.175,0.522
				c0,0.186-0.063,0.339-0.187,0.458c-0.125,0.117-0.302,0.178-0.532,0.178c-0.167,0-0.308-0.047-0.424-0.144
				c-0.117-0.094-0.25-0.236-0.4-0.426c-0.123-0.159-0.267-0.286-0.433-0.382c-0.167-0.096-0.392-0.142-0.677-0.142
				c-0.293,0-0.536,0.061-0.73,0.187c-0.194,0.125-0.291,0.279-0.291,0.466c0,0.171,0.071,0.311,0.213,0.419
				c0.143,0.109,0.334,0.2,0.577,0.271c0.241,0.07,0.573,0.157,0.997,0.26c0.502,0.123,0.913,0.271,1.231,0.439
				c0.318,0.17,0.56,0.371,0.725,0.603C194.756,483.169,194.838,483.433,194.838,483.729z"/>
			<path id="XMLID_253_" fill="#EF8031" d="M196.494,478.506c-0.226,0-0.418-0.068-0.579-0.208c-0.16-0.138-0.24-0.334-0.24-0.588
				c0-0.229,0.082-0.418,0.246-0.566s0.355-0.224,0.573-0.224c0.21,0,0.396,0.067,0.558,0.203c0.162,0.134,0.244,0.329,0.244,0.587
				c0,0.25-0.08,0.444-0.238,0.585C196.899,478.435,196.711,478.506,196.494,478.506z M197.295,480.18v4.685
				c0,0.323-0.077,0.569-0.231,0.734c-0.155,0.167-0.35,0.25-0.588,0.25c-0.238,0-0.431-0.085-0.579-0.256
				c-0.148-0.169-0.222-0.413-0.222-0.729v-4.638c0-0.318,0.074-0.562,0.222-0.724s0.341-0.244,0.579-0.244
				c0.238,0,0.433,0.082,0.588,0.244C197.218,479.665,197.295,479.891,197.295,480.18z"/>
			<path id="XMLID_250_" fill="#EF8031" d="M204.395,480.446v4.707c0,0.539-0.058,1.003-0.173,1.391
				c-0.114,0.387-0.298,0.708-0.552,0.961s-0.584,0.441-0.994,0.563c-0.41,0.124-0.919,0.185-1.529,0.185
				c-0.558,0-1.057-0.078-1.496-0.234c-0.438-0.156-0.777-0.357-1.015-0.604c-0.237-0.248-0.356-0.502-0.356-0.763
				c0-0.198,0.067-0.36,0.202-0.483c0.134-0.126,0.297-0.188,0.486-0.188c0.238,0,0.445,0.104,0.624,0.314
				c0.087,0.106,0.177,0.215,0.27,0.323c0.093,0.109,0.196,0.203,0.309,0.278c0.113,0.077,0.249,0.136,0.407,0.174
				c0.158,0.036,0.341,0.056,0.546,0.056c0.42,0,0.746-0.059,0.977-0.176c0.231-0.116,0.394-0.279,0.487-0.489
				c0.093-0.209,0.147-0.434,0.163-0.674c0.016-0.239,0.028-0.624,0.036-1.155c-0.25,0.351-0.537,0.614-0.864,0.796
				c-0.327,0.184-0.716,0.273-1.167,0.273c-0.542,0-1.016-0.14-1.422-0.416c-0.405-0.277-0.717-0.664-0.935-1.163
				c-0.218-0.5-0.326-1.074-0.326-1.729c0-0.484,0.066-0.927,0.198-1.316c0.133-0.394,0.322-0.724,0.567-0.992
				s0.528-0.471,0.849-0.607c0.32-0.137,0.672-0.204,1.057-0.204c0.458,0,0.856,0.089,1.193,0.264
				c0.336,0.177,0.649,0.452,0.938,0.828v-0.221c0-0.279,0.069-0.497,0.208-0.651s0.317-0.232,0.535-0.232
				c0.313,0,0.52,0.104,0.623,0.308C204.344,479.772,204.395,480.063,204.395,480.446z M199.699,482.501
				c0,0.657,0.143,1.153,0.43,1.489c0.287,0.337,0.658,0.506,1.113,0.506c0.269,0,0.523-0.074,0.763-0.218
				c0.24-0.145,0.434-0.362,0.585-0.653c0.15-0.29,0.226-0.643,0.226-1.06c0-0.66-0.145-1.176-0.437-1.543
				c-0.291-0.367-0.674-0.553-1.149-0.553c-0.463,0-0.834,0.177-1.113,0.529C199.838,481.352,199.699,481.852,199.699,482.501z"/>
			<path id="XMLID_248_" fill="#EF8031" d="M206.97,480.156v0.194c0.284-0.376,0.596-0.651,0.935-0.827
				c0.339-0.177,0.727-0.266,1.167-0.266c0.428,0,0.809,0.094,1.146,0.279c0.336,0.187,0.588,0.449,0.753,0.789
				c0.107,0.199,0.176,0.412,0.208,0.642c0.032,0.23,0.048,0.522,0.048,0.879v3.017c0,0.323-0.074,0.569-0.223,0.734
				c-0.148,0.167-0.341,0.25-0.579,0.25c-0.242,0-0.438-0.085-0.588-0.256c-0.151-0.169-0.226-0.413-0.226-0.729v-2.702
				c0-0.533-0.075-0.941-0.223-1.226c-0.149-0.281-0.444-0.425-0.888-0.425c-0.288,0-0.551,0.086-0.789,0.259
				c-0.237,0.173-0.412,0.408-0.522,0.709c-0.079,0.241-0.119,0.692-0.119,1.354v2.03c0,0.328-0.077,0.574-0.228,0.738
				c-0.152,0.164-0.349,0.246-0.591,0.246c-0.234,0-0.425-0.085-0.576-0.256c-0.15-0.169-0.226-0.413-0.226-0.729v-4.685
				c0-0.31,0.067-0.54,0.202-0.691c0.135-0.151,0.319-0.229,0.552-0.229c0.143,0,0.271,0.034,0.386,0.103
				c0.114,0.067,0.207,0.168,0.276,0.303C206.936,479.797,206.97,479.962,206.97,480.156z"/>
			<path id="XMLID_245_" fill="#EF8031" d="M216.829,482.953h-3.169c0.004,0.367,0.078,0.69,0.223,0.973
				c0.145,0.28,0.336,0.493,0.576,0.635c0.238,0.144,0.503,0.215,0.792,0.215c0.194,0,0.371-0.022,0.532-0.067
				c0.16-0.047,0.315-0.117,0.466-0.215c0.15-0.097,0.288-0.2,0.416-0.313c0.126-0.11,0.291-0.263,0.493-0.45
				c0.083-0.071,0.202-0.108,0.356-0.108c0.166,0,0.301,0.047,0.404,0.139c0.103,0.093,0.154,0.22,0.154,0.387
				c0,0.146-0.057,0.315-0.172,0.513c-0.115,0.197-0.288,0.385-0.52,0.563c-0.232,0.182-0.522,0.33-0.873,0.448
				c-0.35,0.12-0.753,0.179-1.208,0.179c-1.041,0-1.85-0.297-2.428-0.891c-0.577-0.593-0.867-1.398-0.867-2.415
				c0-0.479,0.072-0.925,0.214-1.334c0.143-0.409,0.351-0.76,0.624-1.053c0.273-0.293,0.61-0.519,1.009-0.674
				c0.4-0.156,0.844-0.234,1.33-0.234c0.633,0,1.176,0.133,1.629,0.399c0.454,0.269,0.793,0.612,1.019,1.035
				c0.226,0.425,0.338,0.855,0.338,1.294c0,0.409-0.116,0.674-0.35,0.793C217.582,482.892,217.253,482.953,216.829,482.953z
				 M213.66,482.032h2.938c-0.039-0.554-0.189-0.969-0.448-1.244c-0.259-0.275-0.601-0.412-1.024-0.412
				c-0.404,0-0.736,0.139-0.995,0.417C213.872,481.072,213.715,481.485,213.66,482.032z"/>
			<path id="XMLID_242_" fill="#EF8031" d="M223.435,484.923v-0.161c-0.217,0.249-0.432,0.453-0.644,0.608
				c-0.212,0.157-0.441,0.274-0.688,0.355c-0.247,0.082-0.518,0.122-0.81,0.122c-0.389,0-0.748-0.082-1.078-0.246
				c-0.331-0.164-0.616-0.398-0.858-0.703c-0.242-0.305-0.424-0.661-0.549-1.074c-0.125-0.411-0.187-0.857-0.187-1.336
				c0-1.014,0.247-1.804,0.742-2.369c0.495-0.564,1.146-0.848,1.953-0.848c0.467,0,0.861,0.079,1.181,0.239
				c0.321,0.16,0.633,0.407,0.938,0.738v-2.392c0-0.333,0.067-0.583,0.2-0.755c0.132-0.17,0.321-0.256,0.567-0.256
				c0.245,0,0.434,0.079,0.566,0.235c0.133,0.157,0.199,0.387,0.199,0.691v7.146c0,0.309-0.071,0.54-0.213,0.694
				c-0.143,0.153-0.327,0.23-0.552,0.23c-0.222,0-0.405-0.08-0.549-0.239C223.508,485.447,223.435,485.22,223.435,484.923z
				 M220.248,482.543c0,0.439,0.068,0.813,0.205,1.121c0.136,0.31,0.323,0.541,0.562,0.697c0.237,0.155,0.496,0.234,0.777,0.234
				c0.285,0,0.546-0.074,0.781-0.223c0.235-0.148,0.424-0.376,0.564-0.683c0.141-0.308,0.211-0.691,0.211-1.148
				c0-0.433-0.07-0.804-0.211-1.115c-0.14-0.31-0.331-0.547-0.57-0.711c-0.24-0.164-0.502-0.246-0.787-0.246
				c-0.296,0-0.562,0.084-0.795,0.252s-0.415,0.409-0.543,0.725C220.312,481.762,220.248,482.126,220.248,482.543z"/>
			<path id="XMLID_239_" fill="#EF8031" d="M230.059,477.775v2.475c0.305-0.316,0.615-0.559,0.932-0.727
				c0.316-0.168,0.708-0.252,1.175-0.252c0.539,0,1.01,0.128,1.416,0.382c0.405,0.256,0.72,0.626,0.944,1.109
				c0.223,0.485,0.335,1.061,0.335,1.726c0,0.49-0.063,0.939-0.187,1.351s-0.306,0.767-0.543,1.065
				c-0.238,0.301-0.526,0.533-0.864,0.697c-0.339,0.164-0.712,0.246-1.119,0.246c-0.25,0-0.484-0.028-0.703-0.09
				c-0.22-0.059-0.407-0.137-0.562-0.233c-0.154-0.097-0.286-0.196-0.395-0.3c-0.109-0.103-0.252-0.258-0.431-0.464v0.161
				c0,0.304-0.073,0.535-0.22,0.692c-0.146,0.155-0.332,0.232-0.558,0.232c-0.229,0-0.413-0.077-0.549-0.232
				c-0.137-0.157-0.205-0.39-0.205-0.692v-7.076c0-0.329,0.066-0.577,0.198-0.745c0.133-0.168,0.318-0.253,0.556-0.253
				c0.25,0,0.441,0.081,0.576,0.241C229.992,477.251,230.059,477.478,230.059,477.775z M230.136,482.59
				c0,0.646,0.147,1.142,0.442,1.486s0.682,0.521,1.161,0.521c0.407,0,0.759-0.177,1.053-0.531c0.295-0.354,0.442-0.861,0.442-1.521
				c0-0.428-0.061-0.797-0.184-1.104c-0.123-0.309-0.297-0.548-0.522-0.716s-0.489-0.252-0.79-0.252
				c-0.309,0-0.584,0.084-0.825,0.252c-0.242,0.168-0.431,0.411-0.57,0.729C230.206,481.771,230.136,482.15,230.136,482.59z"/>
			<path id="XMLID_237_" fill="#EF8031" d="M236.963,486.051l0.148-0.361l-1.995-5.022c-0.123-0.288-0.185-0.499-0.185-0.63
				c0-0.138,0.036-0.266,0.107-0.384c0.072-0.12,0.169-0.216,0.294-0.286c0.125-0.072,0.254-0.107,0.389-0.107
				c0.233,0,0.409,0.074,0.528,0.225c0.119,0.146,0.224,0.358,0.314,0.637l1.372,3.989l1.3-3.709
				c0.103-0.302,0.196-0.536,0.279-0.707c0.083-0.17,0.171-0.284,0.264-0.345c0.093-0.06,0.225-0.09,0.395-0.09
				c0.123,0,0.24,0.033,0.353,0.1c0.113,0.063,0.2,0.151,0.261,0.264c0.061,0.111,0.092,0.228,0.092,0.351
				c-0.016,0.074-0.042,0.183-0.078,0.321c-0.036,0.138-0.079,0.279-0.13,0.421l-2.113,5.532c-0.183,0.487-0.361,0.868-0.535,1.145
				c-0.174,0.277-0.405,0.491-0.692,0.64s-0.674,0.224-1.161,0.224c-0.475,0-0.831-0.052-1.068-0.154
				c-0.238-0.104-0.356-0.291-0.356-0.563c0-0.187,0.056-0.33,0.169-0.43c0.112-0.103,0.28-0.153,0.501-0.153
				c0.087,0,0.173,0.013,0.256,0.037c0.103,0.022,0.191,0.035,0.267,0.035c0.186,0,0.333-0.026,0.44-0.083
				c0.106-0.056,0.202-0.151,0.288-0.288C236.754,486.518,236.852,486.315,236.963,486.051z"/>
		</g>
		<g id="XMLID_149_">
			<path id="XMLID_222_" fill="#EF8031" d="M260.439,479.399h0.387v-0.486c0-0.509,0.063-0.91,0.191-1.211
				c0.127-0.299,0.348-0.517,0.654-0.652s0.727-0.204,1.26-0.204c0.95,0,1.422,0.229,1.422,0.695c0,0.149-0.051,0.278-0.15,0.385
				c-0.096,0.106-0.215,0.16-0.35,0.16c-0.062,0-0.172-0.011-0.33-0.037c-0.146-0.021-0.281-0.035-0.389-0.035
				c-0.292,0-0.479,0.088-0.564,0.261c-0.08,0.172-0.123,0.418-0.123,0.739v0.387h0.396c0.619,0,0.925,0.186,0.925,0.56
				c0,0.262-0.078,0.432-0.244,0.504c-0.164,0.07-0.391,0.105-0.681,0.105h-0.396v4.295c0,0.318-0.076,0.563-0.23,0.729
				c-0.15,0.171-0.347,0.254-0.59,0.254c-0.229,0-0.418-0.083-0.574-0.254c-0.152-0.167-0.227-0.41-0.227-0.729v-4.295h-0.447
				c-0.243,0-0.426-0.054-0.559-0.163c-0.131-0.106-0.196-0.249-0.196-0.424C259.625,479.592,259.896,479.399,260.439,479.399"/>
			<path id="XMLID_187_" fill="#EF8031" d="M265.746,483.508v1.355c0,0.327-0.083,0.575-0.234,0.736
				c-0.154,0.166-0.349,0.246-0.586,0.246c-0.238,0-0.43-0.081-0.578-0.25c-0.147-0.165-0.227-0.41-0.227-0.732v-4.516
				c0-0.729,0.262-1.092,0.789-1.092c0.271,0,0.464,0.084,0.583,0.255c0.118,0.171,0.184,0.421,0.198,0.754
				c0.192-0.333,0.391-0.583,0.593-0.754c0.208-0.171,0.476-0.255,0.817-0.255c0.344,0,0.67,0.084,0.991,0.255
				c0.322,0.171,0.482,0.397,0.482,0.679c0,0.195-0.069,0.361-0.204,0.487c-0.139,0.13-0.285,0.195-0.442,0.195
				c-0.063,0-0.206-0.039-0.432-0.113c-0.229-0.069-0.431-0.107-0.603-0.107c-0.238,0-0.433,0.064-0.582,0.188
				c-0.15,0.128-0.27,0.311-0.353,0.554c-0.081,0.246-0.138,0.541-0.171,0.878C265.759,482.608,265.746,483.022,265.746,483.508"/>
			<path id="XMLID_166_" fill="#EF8031" d="M273.195,482.95h-3.17c0.006,0.367,0.078,0.693,0.222,0.975
				c0.146,0.279,0.337,0.491,0.577,0.636c0.24,0.143,0.503,0.213,0.793,0.213c0.193,0,0.369-0.021,0.531-0.069
				c0.158-0.044,0.314-0.116,0.465-0.214c0.15-0.096,0.287-0.198,0.416-0.313c0.125-0.107,0.291-0.26,0.494-0.448
				c0.084-0.07,0.203-0.108,0.354-0.108c0.167,0,0.3,0.047,0.405,0.139c0.104,0.092,0.152,0.22,0.152,0.388
				c0,0.146-0.056,0.316-0.166,0.511c-0.117,0.199-0.289,0.386-0.522,0.565s-0.524,0.33-0.874,0.447
				c-0.35,0.118-0.753,0.178-1.207,0.178c-1.044,0-1.852-0.295-2.43-0.889c-0.577-0.595-0.868-1.401-0.868-2.417
				c0-0.479,0.073-0.924,0.217-1.334c0.14-0.411,0.349-0.761,0.624-1.055c0.271-0.294,0.607-0.519,1.01-0.675
				c0.396-0.155,0.84-0.233,1.328-0.233c0.633,0,1.176,0.135,1.629,0.404c0.452,0.264,0.797,0.609,1.018,1.033
				c0.227,0.426,0.339,0.854,0.339,1.296c0,0.405-0.117,0.67-0.351,0.791S273.619,482.95,273.195,482.95 M270.023,482.028h2.938
				c-0.039-0.554-0.187-0.969-0.444-1.241c-0.262-0.275-0.601-0.412-1.025-0.412c-0.404,0-0.736,0.138-0.995,0.418
				C270.238,481.071,270.079,481.483,270.023,482.028"/>
			<path id="XMLID_163_" fill="#EF8031" d="M279.938,482.95h-3.17c0.004,0.367,0.078,0.693,0.221,0.975
				c0.146,0.279,0.338,0.491,0.578,0.636c0.238,0.143,0.502,0.213,0.793,0.213c0.191,0,0.371-0.021,0.527-0.069
				c0.163-0.044,0.316-0.116,0.469-0.214c0.151-0.096,0.289-0.198,0.416-0.313c0.125-0.107,0.291-0.26,0.492-0.448
				c0.084-0.07,0.204-0.108,0.355-0.108c0.167,0,0.302,0.047,0.406,0.139c0.104,0.092,0.15,0.22,0.15,0.388
				c0,0.146-0.055,0.316-0.171,0.511c-0.11,0.199-0.284,0.386-0.519,0.565c-0.232,0.18-0.525,0.33-0.873,0.447
				c-0.348,0.118-0.754,0.178-1.208,0.178c-1.042,0-1.849-0.295-2.429-0.889c-0.578-0.595-0.869-1.401-0.869-2.417
				c0-0.479,0.072-0.924,0.218-1.334c0.142-0.411,0.349-0.761,0.623-1.055c0.272-0.294,0.608-0.519,1.008-0.675
				c0.399-0.155,0.845-0.233,1.331-0.233c0.631,0,1.174,0.135,1.633,0.404c0.45,0.264,0.791,0.609,1.014,1.033
				c0.225,0.426,0.34,0.854,0.34,1.296c0,0.405-0.119,0.67-0.351,0.791C280.688,482.891,280.359,482.95,279.938,482.95
				 M276.768,482.028h2.938c-0.04-0.554-0.19-0.969-0.447-1.241c-0.264-0.275-0.602-0.412-1.026-0.412
				c-0.403,0-0.734,0.138-0.996,0.418C276.979,481.071,276.82,481.483,276.768,482.028"/>
			<path id="XMLID_160_" fill="#EF8031" d="M283.486,480.168v0.194c0.305-0.376,0.623-0.651,0.955-0.827
				c0.322-0.179,0.697-0.269,1.113-0.269c0.496,0,0.959,0.132,1.379,0.387c0.42,0.259,0.75,0.635,0.993,1.129
				c0.243,0.497,0.366,1.081,0.366,1.759c0,0.497-0.07,0.957-0.21,1.376c-0.142,0.417-0.336,0.767-0.581,1.05
				c-0.245,0.281-0.535,0.5-0.868,0.653c-0.339,0.151-0.694,0.227-1.079,0.227c-0.462,0-0.853-0.093-1.166-0.278
				c-0.313-0.183-0.615-0.458-0.902-0.815v2.433c0,0.711-0.26,1.068-0.776,1.068c-0.306,0-0.505-0.092-0.606-0.273
				c-0.096-0.188-0.146-0.452-0.146-0.808v-6.996c0-0.309,0.066-0.537,0.2-0.691c0.134-0.149,0.319-0.228,0.553-0.228
				c0.229,0,0.416,0.077,0.56,0.232C283.417,479.648,283.486,479.871,283.486,480.168 M286.665,482.523
				c0-0.43-0.065-0.797-0.197-1.104c-0.13-0.308-0.311-0.542-0.54-0.704c-0.229-0.165-0.49-0.248-0.771-0.248
				c-0.447,0-0.824,0.177-1.131,0.527c-0.308,0.354-0.461,0.871-0.461,1.558c0,0.643,0.151,1.146,0.459,1.504
				c0.305,0.358,0.68,0.537,1.134,0.537c0.268,0,0.519-0.079,0.749-0.232c0.232-0.157,0.414-0.393,0.552-0.704
				C286.596,483.344,286.665,482.965,286.665,482.523"/>
			<path id="XMLID_157_" fill="#EF8031" d="M289.925,478.502c-0.227,0-0.418-0.072-0.577-0.21c-0.162-0.139-0.242-0.332-0.242-0.585
				c0-0.23,0.082-0.418,0.248-0.568c0.164-0.146,0.354-0.223,0.571-0.223c0.212,0,0.397,0.066,0.558,0.199
				c0.162,0.137,0.244,0.335,0.244,0.592c0,0.249-0.08,0.444-0.235,0.585C290.333,478.43,290.145,478.502,289.925,478.502
				 M290.729,480.176v4.688c0,0.321-0.078,0.566-0.231,0.731c-0.156,0.169-0.351,0.25-0.588,0.25c-0.238,0-0.429-0.083-0.58-0.254
				c-0.146-0.172-0.222-0.415-0.222-0.729v-4.644c0-0.317,0.076-0.559,0.222-0.722c0.151-0.164,0.342-0.243,0.58-0.243
				c0.237,0,0.432,0.079,0.588,0.243C290.65,479.663,290.729,479.89,290.729,480.176"/>
			<path id="XMLID_156_" fill="#EF8031" d="M295.952,485.107l-1.427-2.354l-0.881,0.83v1.291c0,0.312-0.082,0.551-0.248,0.718
				c-0.16,0.171-0.354,0.254-0.565,0.254c-0.249,0-0.447-0.081-0.588-0.25c-0.142-0.165-0.216-0.41-0.216-0.732v-6.914
				c0-0.359,0.072-0.633,0.209-0.821c0.139-0.19,0.341-0.282,0.596-0.282c0.249,0,0.445,0.085,0.594,0.256
				c0.146,0.17,0.221,0.422,0.221,0.752v3.935l1.822-1.914c0.227-0.235,0.396-0.4,0.518-0.487c0.117-0.087,0.262-0.129,0.431-0.129
				c0.204,0,0.371,0.064,0.51,0.192c0.132,0.128,0.2,0.291,0.2,0.482c0,0.237-0.221,0.557-0.659,0.951l-0.86,0.788l1.66,2.615
				c0.121,0.194,0.213,0.339,0.266,0.439c0.052,0.102,0.082,0.2,0.082,0.289c0,0.258-0.072,0.459-0.213,0.609
				c-0.141,0.146-0.327,0.221-0.553,0.221c-0.199,0-0.354-0.05-0.459-0.159C296.282,485.58,296.134,485.386,295.952,485.107"/>
			<path id="XMLID_155_" fill="#EF8031" d="M299.475,485.847c-0.246,0-0.455-0.078-0.634-0.236
				c-0.178-0.155-0.269-0.379-0.269-0.666c0-0.24,0.087-0.449,0.256-0.621c0.172-0.175,0.38-0.264,0.63-0.264
				c0.249,0,0.46,0.089,0.64,0.259c0.174,0.172,0.264,0.384,0.264,0.626c0,0.282-0.09,0.506-0.264,0.663
				C299.919,485.769,299.712,485.847,299.475,485.847"/>
			<path id="XMLID_154_" fill="#EF8031" d="M307.537,483.842c0,0.2-0.062,0.417-0.182,0.646c-0.12,0.23-0.306,0.449-0.555,0.655
				c-0.247,0.208-0.557,0.376-0.934,0.503c-0.376,0.127-0.801,0.19-1.27,0.19c-1.004,0-1.787-0.293-2.35-0.875
				c-0.559-0.585-0.841-1.368-0.841-2.35c0-0.668,0.128-1.254,0.387-1.767c0.255-0.509,0.627-0.903,1.113-1.184
				c0.487-0.28,1.073-0.419,1.747-0.419c0.421,0,0.805,0.061,1.156,0.185c0.352,0.122,0.646,0.282,0.892,0.476
				c0.242,0.195,0.429,0.4,0.556,0.62c0.129,0.22,0.193,0.425,0.193,0.615c0,0.193-0.071,0.358-0.215,0.492
				c-0.146,0.134-0.322,0.202-0.524,0.202c-0.137,0-0.249-0.035-0.338-0.104c-0.09-0.069-0.19-0.182-0.299-0.339
				c-0.199-0.299-0.404-0.525-0.623-0.675c-0.216-0.15-0.488-0.226-0.821-0.226c-0.477,0-0.863,0.186-1.158,0.56
				c-0.293,0.373-0.439,0.889-0.439,1.535c0,0.305,0.039,0.587,0.115,0.842c0.072,0.254,0.182,0.474,0.324,0.651
				c0.145,0.18,0.315,0.316,0.518,0.409c0.203,0.097,0.426,0.142,0.665,0.142c0.325,0,0.604-0.075,0.835-0.226
				c0.236-0.15,0.439-0.38,0.617-0.688c0.099-0.182,0.205-0.323,0.317-0.427c0.114-0.104,0.255-0.157,0.422-0.157
				c0.198,0,0.363,0.077,0.491,0.229C307.469,483.511,307.537,483.672,307.537,483.842"/>
			<path id="XMLID_151_" fill="#EF8031" d="M314.53,482.554c0,0.48-0.076,0.929-0.223,1.337c-0.153,0.407-0.369,0.759-0.654,1.049
				c-0.285,0.293-0.626,0.518-1.021,0.675c-0.398,0.154-0.844,0.234-1.337,0.234c-0.491,0-0.933-0.08-1.326-0.238
				c-0.389-0.155-0.73-0.385-1.016-0.678c-0.288-0.298-0.505-0.646-0.658-1.048c-0.143-0.401-0.219-0.847-0.219-1.331
				c0-0.492,0.077-0.94,0.224-1.349c0.151-0.409,0.369-0.759,0.649-1.047c0.282-0.288,0.621-0.51,1.019-0.669
				c0.403-0.155,0.845-0.232,1.326-0.232c0.491,0,0.938,0.077,1.337,0.237c0.399,0.158,0.74,0.385,1.028,0.676
				c0.286,0.296,0.502,0.643,0.648,1.045C314.456,481.621,314.53,482.064,314.53,482.554 M312.903,482.554
				c0-0.662-0.146-1.176-0.437-1.543c-0.289-0.372-0.681-0.556-1.172-0.556c-0.316,0-0.597,0.083-0.838,0.246
				c-0.242,0.164-0.426,0.406-0.557,0.729c-0.132,0.32-0.197,0.695-0.197,1.124c0,0.424,0.063,0.792,0.193,1.108
				c0.131,0.318,0.313,0.561,0.554,0.729c0.241,0.166,0.521,0.253,0.845,0.253c0.491,0,0.883-0.186,1.172-0.558
				C312.756,483.717,312.903,483.204,312.903,482.554"/>
			<path id="XMLID_150_" fill="#EF8031" d="M320.713,482.672v2.154c0,0.342-0.076,0.595-0.23,0.767
				c-0.156,0.171-0.357,0.256-0.611,0.256c-0.246,0-0.446-0.085-0.595-0.256c-0.154-0.172-0.232-0.425-0.232-0.767v-2.581
				c0-0.409-0.013-0.728-0.04-0.954c-0.028-0.221-0.104-0.408-0.226-0.552c-0.123-0.146-0.318-0.221-0.582-0.221
				c-0.531,0-0.879,0.183-1.047,0.552c-0.167,0.359-0.255,0.884-0.255,1.566v2.188c0,0.336-0.076,0.591-0.226,0.765
				c-0.156,0.171-0.354,0.258-0.603,0.258s-0.448-0.087-0.604-0.258c-0.158-0.174-0.236-0.429-0.236-0.765v-4.638
				c0-0.306,0.07-0.536,0.21-0.694c0.144-0.16,0.329-0.237,0.557-0.237c0.223,0,0.408,0.076,0.558,0.222
				c0.147,0.149,0.222,0.354,0.222,0.615v0.152c0.282-0.334,0.584-0.582,0.902-0.737c0.322-0.162,0.676-0.241,1.07-0.241
				c0.407,0,0.757,0.081,1.049,0.244c0.293,0.162,0.533,0.409,0.725,0.734c0.274-0.329,0.567-0.576,0.882-0.737
				c0.313-0.161,0.657-0.241,1.039-0.241c0.44,0,0.824,0.089,1.146,0.263c0.318,0.174,0.559,0.426,0.716,0.748
				c0.139,0.295,0.207,0.755,0.207,1.385v3.164c0,0.342-0.076,0.595-0.229,0.767c-0.154,0.171-0.359,0.256-0.612,0.256
				c-0.247,0-0.447-0.087-0.603-0.258c-0.156-0.174-0.235-0.429-0.235-0.765V482.1c0-0.349-0.015-0.627-0.043-0.836
				c-0.029-0.211-0.111-0.389-0.239-0.529c-0.133-0.143-0.332-0.216-0.596-0.216c-0.213,0-0.416,0.067-0.609,0.193
				c-0.191,0.123-0.342,0.298-0.451,0.508C320.774,481.494,320.713,481.979,320.713,482.672"/>
		</g>
		<g id="XMLID_135_">
			<path id="XMLID_148_" fill="#EF8031" d="M245.272,482.16c-0.001-0.002-0.001-0.006-0.001-0.011
				C245.271,482.154,245.271,482.158,245.272,482.16z"/>
			<path id="XMLID_147_" fill="#EF8031" d="M245.354,482.68c0.001,0,0.001,0,0.002,0c-0.031-0.147-0.055-0.295-0.074-0.438
				C245.301,482.387,245.325,482.533,245.354,482.68z"/>
			<path id="XMLID_146_" fill="#EF8031" d="M245.891,484.184c-0.004-0.007-0.007-0.014-0.011-0.021
				C245.884,484.17,245.887,484.177,245.891,484.184z"/>
			<path id="XMLID_145_" fill="#EF8031" d="M245.839,484.083c-0.014-0.028-0.028-0.056-0.041-0.084
				C245.812,484.028,245.825,484.055,245.839,484.083z"/>
			<path id="XMLID_144_" fill="#EF8031" d="M245.505,483.258c0.079,0.25,0.175,0.493,0.286,0.725
				c-0.113-0.235-0.207-0.479-0.284-0.725H245.505z"/>
			<path id="XMLID_143_" fill="#EF8031" d="M251.545,475.951c0.313,0,0.544,0.022,0.809,0.068l0.076-0.478
				c0,0-0.731-0.225-1.693-0.146l-0.076-0.26c0.299-0.063,0.523-0.329,0.523-0.646c0-0.364-0.295-0.658-0.66-0.658
				s-0.661,0.294-0.661,0.658c0,0.316,0.224,0.583,0.522,0.646l0.084,0.289c-1.021,0.142-1.834,0.539-1.834,0.539l0.144,0.44
				c0.618-0.205,1.154-0.331,1.64-0.384C250.896,475.973,251.253,475.951,251.545,475.951z"/>
			<path id="XMLID_142_" fill="#EF8031" d="M245.878,478.361l0.003-0.005c0.024-0.03,0.047-0.061,0.071-0.09l-0.196-0.141
				l-0.305-0.223c-0.017,0.023-0.497,0.465-0.876,1.279c-0.016-0.024-0.035-0.052-0.056-0.074c-0.113-0.124-0.272-0.188-0.474-0.185
				c-0.002,0-0.006,0-0.009,0c-0.125,0-0.21-0.042-0.267-0.092c0.056-0.07,0.089-0.16,0.089-0.259c0-0.229-0.188-0.417-0.418-0.417
				s-0.418,0.188-0.418,0.417c0,0.231,0.188,0.419,0.418,0.419c0.036,0,0.071-0.006,0.104-0.015c0.103,0.115,0.266,0.215,0.505,0.21
				c0.123-0.002,0.213,0.029,0.273,0.098c0.069,0.075,0.093,0.185,0.1,0.268c0,0.001,0,0.002-0.002,0.002
				c-0.272,0.743-0.194,1.669-0.194,1.669l0.661,0.026c0.014-0.337,0.062-0.926,0.232-1.394
				C245.45,478.952,245.861,478.386,245.878,478.361z"/>
			<path id="XMLID_141_" fill="#EF8031" d="M257.295,476.503c-0.229,0-0.417,0.188-0.417,0.418c0,0.036,0.005,0.07,0.015,0.104
				c-0.115,0.104-0.215,0.268-0.211,0.507c0.002,0.123-0.029,0.212-0.096,0.272c-0.053,0.046-0.12,0.072-0.186,0.088
				c-0.491-0.688-1.096-1.108-1.096-1.108l-0.476,0.508c0.358,0.326,0.726,0.734,1.081,1.244c0.247,0.353,0.499,0.807,0.71,1.259
				l0.64-0.304c0,0-0.291-0.724-0.703-1.369c0.071-0.025,0.144-0.065,0.207-0.121c0.125-0.112,0.187-0.272,0.184-0.474
				c-0.002-0.129,0.041-0.218,0.092-0.275c0.072,0.055,0.161,0.089,0.258,0.089c0.232,0,0.418-0.187,0.418-0.418
				C257.715,476.691,257.527,476.503,257.295,476.503z"/>
			<path id="XMLID_140_" fill="#EF8031" d="M255.635,482.255c-0.881,0.428-2.33,0.995-4.238,1.262
				c-0.75,0.104-1.476,0.143-2.144,0.143c-0.869,0-1.637-0.064-2.227-0.14c-0.672-0.085-1.198-0.188-1.52-0.262
				c0.077,0.245,0.171,0.488,0.284,0.725c0.002,0.007,0.005,0.014,0.008,0.018c0.013,0.028,0.027,0.056,0.041,0.084
				c0.013,0.026,0.027,0.054,0.041,0.079c0.004,0.008,0.007,0.015,0.011,0.021c0.189,0.356,0.417,0.685,0.675,0.969
				c0.9,0.982,1.817,1.14,1.826,1.142l0.014,0.001l0.013,0.005c0.008,0.004,0.821,0.267,2.058,0.267
				c1.214,0,2.409-0.245,3.544-0.729c0.842-0.431,1.641-1.085,2.035-1.669c0.305-0.451,0.525-0.933,0.656-1.433
				c0.07-0.268,0.125-0.692,0.092-1.143C256.557,481.759,256.165,481.996,255.635,482.255z"/>
			<path id="XMLID_136_" fill="#EF8031" d="M246.161,478.57c-0.026,0.038-0.408,0.579-0.709,1.408
				c-0.226,0.621-0.216,1.526-0.216,1.536v0.003c0,0.213,0.012,0.423,0.036,0.632c0,0.005,0,0.009,0.001,0.011
				c0.002,0.027,0.007,0.053,0.01,0.08c0.019,0.145,0.043,0.291,0.074,0.438c0.438,0.11,3.049,0.721,5.967,0.313
				c1.83-0.255,3.219-0.796,4.063-1.205c0.701-0.339,1.151-0.647,1.324-0.774c-0.173-0.642-0.65-1.649-1.089-2.277
				c-1.253-1.791-2.604-2.25-3.298-2.364c-0.266-0.043-0.477-0.068-0.777-0.068c-0.279,0-0.626,0.022-1.089,0.071
				c-0.464,0.048-0.982,0.17-1.583,0.372c-0.842,0.282-1.604,0.725-2.205,1.28l-0.02,0.02
				C246.56,478.127,246.375,478.3,246.161,478.57z M253.829,478.154c0.601,0,1.09,0.487,1.09,1.089s-0.489,1.09-1.09,1.09
				s-1.089-0.488-1.089-1.09C252.74,478.643,253.229,478.154,253.829,478.154z M248.679,478.11c0.973,0,1.76,0.788,1.76,1.761
				s-0.788,1.76-1.76,1.76c-0.972,0-1.76-0.787-1.76-1.76S247.707,478.11,248.679,478.11z"/>
		</g>
	</g>
</g>
</svg>
